<svg xmlns="http://www.w3.org/2000/svg" viewBox="0 0 60 60"><defs><style>.a{fill:#fff;}</style></defs><title>Nespresso_FHTML_SVG_ICONES</title><path class="a" d="M37,25.3a7,7,0,0,0-2.58-5.41,6.87,6.87,0,0,0-1-.64l-0.14-.08V19.9l0,0a5.84,5.84,0,0,1,.66.45,6.35,6.35,0,0,1,2.35,4.92V41.42h-1.6V29.14a0.31,0.31,0,0,0-.31-0.31H33v0.63h1.11v12H33.44v-2.9a0.31,0.31,0,0,0-.31-0.31H26.87a0.31,0.31,0,0,0-.31.31v2.91H25.86v-12H27V28.83H25.55a0.31,0.31,0,0,0-.31.31V41.42h-1.6V25.3a6.34,6.34,0,0,1,3-5.39l0,0V19.17l-0.14.08A7,7,0,0,0,23,25.3V41.73a0.31,0.31,0,0,0,.31.31h3.24a1.69,1.69,0,0,0,1.67,1.55h3.52a1.7,1.7,0,0,0,1.67-1.55h3.24A0.31,0.31,0,0,0,37,41.73V25.3ZM32.82,41.92A1.06,1.06,0,0,1,31.76,43H28.24a1.06,1.06,0,0,1-1.06-1V38.83h5.64v3.09Z"/><path class="a" d="M28.07,19.53h0.08a0.16,0.16,0,0,0,.16-0.16V19.09A0.9,0.9,0,0,1,28.58,19l0.48-.07,2.28-.31,0.1,0a0.24,0.24,0,0,0,.1-0.07l0.07-.1,0.21-.36L32,17.73l0.06-.1a0.33,0.33,0,0,0,0-.14v-1a0.31,0.31,0,0,0,0-.14,0.91,0.91,0,0,0-.06-0.1l-0.19-.33-0.21-.36a0.51,0.51,0,0,0-.09-0.13l-0.07,0-0.1,0L30,15.14,29.06,15,28.58,15a0.84,0.84,0,0,1-.21-0.07l-0.06,0V14.56a0.16,0.16,0,0,0-.16-0.16H28.07a0.16,0.16,0,0,0-.16.16v4.81A0.16,0.16,0,0,0,28.07,19.53Z"/><polygon class="a" points="29.69 21.15 29.69 24.66 28.44 23.41 28.01 23.85 30 25.84 31.99 23.85 31.56 23.41 30.31 24.66 30.31 21.15 29.69 21.15"/></svg>